<svg width="33" height="34" viewBox="0 0 33 34" fill="none" xmlns="http://www.w3.org/2000/svg">
<path d="M16.2115 3.25C8.74798 3.25 2.70416 9.41 2.70416 17C2.70416 24.59 8.74798 30.75 16.2115 30.75C23.6885 30.75 29.7458 24.59 29.7458 17C29.7458 9.41 23.6885 3.25 16.2115 3.25ZM16.225 28C10.2488 28 5.40833 23.0775 5.40833 17C5.40833 10.9225 10.2488 6 16.225 6C22.2012 6 27.0417 10.9225 27.0417 17C27.0417 23.0775 22.2012 28 16.225 28Z" fill="#0024FF"/>
<path d="M16.901 10.125H14.8729V18.375L21.9714 22.7063L22.9854 21.015L16.901 17.3438V10.125Z" fill="#0024FF"/>
</svg>
