<svg width="28" height="33" viewBox="0 0 28 33" fill="none" xmlns="http://www.w3.org/2000/svg">
<path d="M1.62505 0.825485C0.841299 1.60924 0.800049 2.18674 0.800049 16.5005C0.800049 30.8142 0.841299 31.3917 1.62505 32.1755C2.4088 32.9592 2.9863 33.0005 14 33.0005C25.0138 33.0005 25.5913 32.9592 26.375 32.1755C27.1588 31.3917 27.2 30.8142 27.2 20.5017V9.69424L22.3325 4.82674L17.5063 0.000488281H9.95755C2.9863 0.000488281 2.4088 0.0417366 1.62505 0.825485ZM24.3125 11.4267C24.3125 11.5092 22.3738 11.5505 19.9813 11.5505H15.65V7.13674V2.68174L19.9813 7.01299C22.3738 9.40549 24.3125 11.3855 24.3125 11.4267ZM20.6 18.1505V19.8005H14H7.40005V18.1505V16.5005H14H20.6V18.1505ZM20.6 24.7505V26.4005H14H7.40005V24.7505V23.1005H14H20.6V24.7505Z" fill="#0024FF"/>
</svg>
