<svg width="31" height="33" viewBox="0 0 31 33" fill="none" xmlns="http://www.w3.org/2000/svg">
<path d="M1.2516 0.751484C0.53758 1.46551 0.5 1.99163 0.5 15.0319C0.5 28.0722 0.53758 28.5983 1.2516 29.3124C1.92804 29.9888 2.49175 30.064 7.45232 30.064C10.4587 30.064 12.9014 29.9888 12.9014 29.9136C12.9014 29.8385 12.5632 29.0493 12.1498 28.1474C11.0976 25.7798 11.1352 22.1721 12.3002 19.7294C14.0664 15.8963 17.7117 13.7542 22.071 13.9797L24.5513 14.0924V11.4618V8.83121L20.1168 4.39676L15.7199 -0.000118256H8.84278C2.49175 -0.000118256 1.96562 0.0374622 1.2516 0.751484ZM21.9207 10.4096C21.9207 10.4847 20.1544 10.5223 17.9747 10.5223H14.0288V6.50124V2.44259L17.9747 6.3885C20.1544 8.56815 21.9207 10.372 21.9207 10.4096Z" fill="#0024FF"/>
<path d="M17.9747 17.1741C15.2314 18.6021 14.0288 20.7066 14.0288 24.0512C14.0288 28.7863 16.8097 31.5673 21.5072 31.5673C22.7474 31.5673 24.213 31.3794 24.7391 31.1163C25.6035 30.7405 25.829 30.8156 26.9188 31.8679C28.3844 33.2959 28.685 33.3335 29.7373 32.2061C30.8271 31.0787 30.7895 30.8908 29.3615 29.4252C28.3092 28.3354 28.2341 28.1099 28.6099 27.2455C29.6621 24.9156 28.9857 20.669 27.2194 18.6397C25.4532 16.648 20.4926 15.8212 17.9747 17.1741ZM23.7621 20.4435C27.2194 22.2474 25.7914 28.1475 21.8455 28.185C18.9894 28.185 17.411 26.6443 17.411 23.713C17.411 20.669 20.7932 18.9403 23.7621 20.4435Z" fill="#0024FF"/>
</svg>
