<svg width="30" height="33" viewBox="0 0 30 33" fill="none" xmlns="http://www.w3.org/2000/svg">
<path d="M5.90542 0.828905C5.163 1.57133 5.08051 2.19001 5.08051 6.6033C5.08051 12.7077 5.36923 13.2026 9.12258 13.2026H11.4736L13.0822 15.6774C13.9483 17.0385 14.8145 18.1521 14.9795 18.1521C15.1445 18.1521 16.0106 17.0385 16.8768 15.6774L18.4854 13.2026H20.8364C24.5897 13.2026 24.8784 12.7077 24.8784 6.6033C24.8784 -0.367222 25.4559 0.00399017 14.9795 0.00399017C7.26653 0.00399017 6.68909 0.0452366 5.90542 0.828905Z" fill="#0024FF"/>
<path d="M4.25539 18.9771C3.7192 19.5133 3.43048 20.3382 3.43048 21.4518C3.43048 23.6378 4.54411 24.7515 6.73014 24.7515C8.91616 24.7515 10.0298 23.6378 10.0298 21.4518C10.0298 20.3382 9.74107 19.5133 9.20488 18.9771C8.66868 18.4409 7.84377 18.1522 6.73014 18.1522C5.6165 18.1522 4.79159 18.4409 4.25539 18.9771Z" fill="#0024FF"/>
<path d="M20.7537 18.9771C20.2175 19.5133 19.9288 20.3382 19.9288 21.4518C19.9288 23.6378 21.0424 24.7515 23.2284 24.7515C25.4144 24.7515 26.5281 23.6378 26.5281 21.4518C26.5281 20.3382 26.2394 19.5133 25.7032 18.9771C25.167 18.4409 24.3421 18.1522 23.2284 18.1522C22.1148 18.1522 21.2899 18.4409 20.7537 18.9771Z" fill="#0024FF"/>
<path d="M2.60566 26.8549C0.625869 27.6798 0.13092 28.4635 0.13092 30.8145V33.0005H6.73023H13.3708L13.2471 30.6907C13.0821 27.3498 12.0509 26.6487 7.22518 26.5249C5.24539 26.4424 3.1831 26.6074 2.60566 26.8549Z" fill="#0024FF"/>
<path d="M19.104 26.8549C17.1242 27.6798 16.6292 28.4635 16.6292 30.8145V33.0005H23.2285H29.8691L29.7453 30.6907C29.5804 27.3498 28.5492 26.6487 23.7235 26.5249C21.7437 26.4424 19.6814 26.6074 19.104 26.8549Z" fill="#0024FF"/>
</svg>
