<svg width="31" height="33" viewBox="0 0 31 33" fill="none" xmlns="http://www.w3.org/2000/svg">
<path d="M11.5683 7.85454L5.49379 13.9291L6.57453 14.9353C7.80435 16.1278 8.02795 16.1651 8.95963 15.308C9.63043 14.7117 9.70497 14.749 10.8602 15.867L12.0528 17.0595L6.2764 22.8359L0.5 28.6123L1.72981 29.8049L2.92236 31.0347L8.69876 25.2583L14.4752 19.4819L15.854 20.8608C17.1584 22.1651 17.1957 22.2769 16.5994 22.9477C15.7422 23.8794 15.7795 24.2148 17.0093 25.3701L18.0528 26.3763L24.1646 20.2272L30.3137 14.0781L29.1211 12.8856L27.9286 11.6931L26.9596 12.5875L25.9907 13.4819L22.2267 9.7179C18.5745 6.06572 18.4627 5.87939 19.059 5.20858C19.9161 4.2769 19.8789 3.9415 18.6491 2.78622L17.6056 1.78001L11.5683 7.85454Z" fill="#0024FF"/>
<path d="M17.0839 29.7303V31.2209H23.7919H30.5V29.7303V28.2396H23.7919H17.0839V29.7303Z" fill="#0024FF"/>
</svg>
