<svg width="33" height="34" viewBox="0 0 33 34" fill="none" xmlns="http://www.w3.org/2000/svg">
<path d="M23.4992 15.3363L20.5247 12.3113C20.1461 11.9262 20.0379 11.39 20.1866 10.9088C20.6869 9.36875 20.9573 7.71875 20.9573 6C20.9573 5.24375 21.5658 4.625 22.3094 4.625H27.0417C27.7853 4.625 28.3938 5.24375 28.3938 6C28.3938 18.9113 18.1044 29.375 5.40836 29.375C4.66471 29.375 4.05627 28.7563 4.05627 28V23.2013C4.05627 22.445 4.66471 21.8263 5.40836 21.8263C7.08494 21.8263 8.72096 21.5512 10.2353 21.0425C10.7085 20.8775 11.2494 21.0013 11.6144 21.3725L14.589 24.3975C18.4154 22.4037 21.5522 19.2275 23.4992 15.3363Z" fill="#0024FF"/>
</svg>
