<svg width="30" height="29" viewBox="0 0 30 29" fill="none" xmlns="http://www.w3.org/2000/svg">
<path d="M12.7125 2.9C12.3 5.0375 11.9625 5.6 9.8625 8L7.5 10.6625V19.0625C7.5 27.0125 7.5375 27.5375 8.25 28.25C8.9625 28.9625 9.4875 29 16.425 29C21.7875 29 24.0375 28.8875 24.45 28.5125C24.7875 28.2875 26.175 25.55 27.525 22.475C29.6625 17.675 30 16.5875 30 14.7125C30 11.15 29.7375 11 22.6875 11C19.5 11 16.875 10.9625 16.875 10.8875C16.875 10.85 17.1375 9.9875 17.4375 8.975C18.075 6.8375 18.1875 3.3875 17.625 2.3375C17.1375 1.4375 15.3375 0.500002 14.1375 0.500002C13.3125 0.500002 13.1625 0.725002 12.7125 2.9Z" fill="#0024FF"/>
<path d="M0 20V29H2.25H4.5V20V11H2.25H0V20Z" fill="#0024FF"/>
</svg>
