<svg width="26" height="33" viewBox="0 0 26 33" fill="none" xmlns="http://www.w3.org/2000/svg">
<path d="M7.33766 0.477348C7.07014 0.744865 6.87906 1.27991 6.87906 1.73851C6.87906 3.11432 5.80898 4.22261 4.47139 4.22261C1.91085 4.22261 0.611472 6.63028 2.10193 8.57935C2.86627 9.61121 2.82806 9.72586 1.49046 11.2545C-0.191085 13.2036 0.038217 14.8087 2.10193 15.917C3.55418 16.6431 3.63061 16.796 3.74526 18.7068C3.85992 20.503 3.66883 20.9999 1.94907 24.019L0 27.3439L2.63697 27.4585L5.23573 27.5732L6.49689 30.2866L7.75805 33L8.67525 31.5095C9.17208 30.6688 10.2039 28.949 10.9683 27.6496C11.7708 26.312 12.497 25.242 12.6116 25.242C12.7263 25.242 13.8345 26.9999 15.0957 29.1401L17.3505 33L18.6117 30.363L19.8728 27.7261L22.548 27.535L25.185 27.3439L23.3124 24.0954C21.5926 21.1527 21.4015 20.6559 21.4779 18.7833C21.5926 16.7578 21.6308 16.6813 23.1213 15.917C25.185 14.8087 25.4143 13.2036 23.7327 11.2545C22.3952 9.72586 22.3569 9.61121 23.1213 8.57935C24.6117 6.63028 23.3124 4.22261 20.7518 4.22261C19.4142 4.22261 18.3442 3.11432 18.3442 1.73851C18.3442 0.553783 17.618 0.0187454 16.0511 0.0187454C15.1339 0.0187454 14.4078 0.286263 13.9492 0.783085C13.567 1.20347 12.9556 1.54742 12.6116 1.54742C12.2677 1.54742 11.6562 1.20347 11.274 0.783085C10.5097 -0.0959053 8.102 -0.286991 7.33766 0.477348ZM15.0957 12.5921L11.8473 15.8788L9.74533 13.7769L7.6434 11.7131L8.48417 10.8342L9.32494 9.95516L10.5861 11.1781L11.8473 12.401L14.2167 10.0316L16.5862 7.70036L17.4652 8.50291L18.3824 9.34369L15.0957 12.5921ZM9.51603 21.7642C10.0128 22.0699 9.97463 22.3375 9.32494 23.5222C8.40774 25.3184 8.3313 25.3184 6.95549 24.7451L5.8472 24.2865L6.76441 22.8343C7.6434 21.4203 8.48417 21.1145 9.51603 21.7642ZM18.497 22.8343C19.2614 24.0954 19.2996 24.2865 18.7645 24.4394C18.4206 24.4776 17.8855 24.7833 17.5798 25.0891C17.0448 25.5477 16.8537 25.3566 16.0511 23.8661C15.2104 22.3757 15.1721 22.1082 15.669 21.8024C16.739 21.1145 17.5798 21.4203 18.497 22.8343Z" fill="#0024FF"/>
</svg>
