<svg width="200" height="71" viewBox="0 0 200 71" fill="none" xmlns="http://www.w3.org/2000/svg">
<g clip-path="url(#clip0_1_48)">
<mask id="mask0_1_48" style="mask-type:luminance" maskUnits="userSpaceOnUse" x="0" y="0" width="200" height="71">
<path d="M199.982 0.5H0.0179443V70.08H199.982V0.5Z" fill="white"/>
</mask>
<g mask="url(#mask0_1_48)">
<path d="M13.9653 17.0527H17.1975L25.6795 39.8935C26.0974 41.0427 26.5153 41.8067 26.9332 42.1854C27.3642 42.551 27.9388 42.7339 28.657 42.7339H29.088V44.3794H19.3523V42.7339C19.6657 42.7078 19.9726 42.6947 20.273 42.6947C20.8998 42.6947 21.3112 42.6294 21.507 42.4988C21.8858 42.2507 22.0751 41.9373 22.0751 41.5586C22.0751 41.2843 21.8923 40.6118 21.5267 39.5409L19.7245 34.2519H9.81245L7.69684 40.1677C7.47481 40.7815 7.36386 41.206 7.36386 41.441C7.36386 41.7022 7.42912 41.9308 7.55969 42.1266C7.70336 42.3226 7.89273 42.4727 8.1278 42.5772C8.36287 42.6686 8.74161 42.7143 9.26396 42.7143C9.61656 42.7143 9.90384 42.7209 10.1259 42.7339V44.3794H1.95728V42.7339C2.71471 42.7339 3.25668 42.6621 3.58316 42.5184C3.9227 42.3617 4.21654 42.1201 4.46466 41.7936C4.71279 41.4541 5.03927 40.7489 5.44411 39.678L13.9653 17.0527ZM10.5372 32.3321H18.9801L14.7489 20.5787L10.5372 32.3321ZM35.2648 16.1321H36.636L36.8319 17.0527H53.6001L53.7568 16.1321H55.1868L58.0664 24.1636L56.3034 24.7904C55.4545 22.6487 54.4489 21.1469 53.2867 20.2849C52.1244 19.41 50.6356 18.9725 48.8204 18.9725C48.0629 18.9725 47.6124 19.0051 47.4687 19.0704C47.325 19.1226 47.2206 19.2206 47.1553 19.3643C47.1031 19.5079 47.0769 19.965 47.0769 20.7355V39.6976C47.0769 40.5987 47.1226 41.206 47.2141 41.5194C47.3185 41.8328 47.4622 42.0744 47.645 42.2442C47.8278 42.414 48.076 42.538 48.3894 42.6164C48.7159 42.6817 49.4341 42.7209 50.5442 42.7339V44.3794H40.0053V42.7339C41.1676 42.7209 41.8793 42.6817 42.1405 42.6164C42.5976 42.4858 42.9241 42.2376 43.12 41.872C43.3158 41.5063 43.4138 40.8338 43.4138 39.8543V20.4808C43.4138 19.8801 43.3812 19.5144 43.3158 19.3838C43.2636 19.2533 43.1526 19.1553 42.9829 19.09C42.8262 19.0116 42.4931 18.9725 41.9838 18.9725C40.5604 18.9725 39.4177 19.1553 38.5558 19.521C37.7069 19.8866 36.9037 20.507 36.1463 21.3819C35.3889 22.2569 34.7424 23.393 34.207 24.7904L32.444 24.1636L35.2648 16.1321ZM119.748 17.0527H122.98L131.462 39.8935C131.88 41.0427 132.298 41.8067 132.716 42.1854C133.147 42.551 133.721 42.7339 134.44 42.7339H134.871V44.3794H125.135V42.7339C125.449 42.7078 125.755 42.6947 126.056 42.6947C126.682 42.6947 127.094 42.6294 127.29 42.4988C127.668 42.2507 127.858 41.9373 127.858 41.5586C127.858 41.2843 127.675 40.6118 127.309 39.5409L125.507 34.2519H115.595L113.48 40.1677C113.258 40.7815 113.147 41.206 113.147 41.441C113.147 41.7022 113.212 41.9308 113.342 42.1266C113.486 42.3226 113.675 42.4727 113.91 42.5772C114.145 42.6686 114.524 42.7143 115.047 42.7143C115.399 42.7143 115.687 42.7209 115.909 42.7339V44.3794H107.74V42.7339C108.498 42.7339 109.039 42.6621 109.366 42.5184C109.706 42.3617 110 42.1201 110.248 41.7936C110.495 41.4541 110.822 40.7489 111.227 39.678L119.748 17.0527ZM116.32 32.3321H124.763L120.532 20.5787L116.32 32.3321ZM140.499 17.0527H151.038V18.7178H150.313C149.477 18.7178 148.877 18.7962 148.511 18.9529C148.158 19.1096 147.91 19.3838 147.766 19.7756C147.649 20.0629 147.59 20.6702 147.59 21.5974V29.2175H161.753V21.7933C161.753 20.7877 161.721 20.1804 161.655 19.9715C161.551 19.5536 161.322 19.2402 160.97 19.0312C160.63 18.8223 160.108 18.7178 159.403 18.7178H158.325V17.0527H168.785V18.7178H167.845C167.114 18.7178 166.591 18.8027 166.278 18.9725C165.978 19.1292 165.763 19.3512 165.632 19.6385C165.514 19.9128 165.455 20.5135 165.455 21.4407V40.0502C165.455 41.0819 165.521 41.7414 165.651 42.0287C165.782 42.3029 166.043 42.4988 166.435 42.6164C166.67 42.6947 167.453 42.7339 168.785 42.7339V44.3794H158.325V42.7339H159.089C160.055 42.7339 160.695 42.6686 161.009 42.538C161.335 42.4074 161.544 42.1984 161.635 41.9112C161.714 41.6891 161.753 40.9905 161.753 39.8152V31.3331H147.59V40.0502C147.59 41.0819 147.655 41.7414 147.786 42.0287C147.93 42.316 148.198 42.5119 148.589 42.6164C148.877 42.6947 149.693 42.7339 151.038 42.7339V44.3794H140.499V42.7339H141.165C142.184 42.7339 142.817 42.6817 143.065 42.5772C143.326 42.4596 143.529 42.2442 143.672 41.9308C143.829 41.6174 143.908 41.0623 143.908 40.2657V21.4407C143.908 20.5918 143.835 20.0042 143.692 19.6777C143.562 19.3512 143.346 19.1096 143.046 18.9529C142.759 18.7962 142.275 18.7178 141.596 18.7178H140.499V17.0527ZM176.745 16.1321H178.116L178.312 17.0527H195.08L195.237 16.1321H196.667L199.546 24.1636L197.783 24.7904C196.934 22.6487 195.929 21.1469 194.767 20.2849C193.605 19.41 192.116 18.9725 190.3 18.9725C189.543 18.9725 189.093 19.0051 188.949 19.0704C188.805 19.1226 188.701 19.2206 188.636 19.3643C188.583 19.5079 188.557 19.965 188.557 20.7355V39.6976C188.557 40.5987 188.603 41.206 188.694 41.5194C188.799 41.8328 188.942 42.0744 189.125 42.2442C189.308 42.414 189.556 42.538 189.869 42.6164C190.196 42.6817 190.914 42.7209 192.024 42.7339V44.3794H181.485V42.7339C182.648 42.7209 183.359 42.6817 183.621 42.6164C184.078 42.4858 184.404 42.2376 184.6 41.872C184.796 41.5063 184.894 40.8338 184.894 39.8543V20.4808C184.894 19.8801 184.861 19.5144 184.796 19.3838C184.743 19.2533 184.633 19.1553 184.463 19.09C184.306 19.0116 183.973 18.9725 183.464 18.9725C182.04 18.9725 180.898 19.1553 180.036 19.521C179.187 19.8866 178.384 20.507 177.626 21.3819C176.869 22.2569 176.223 23.393 175.687 24.7904L173.924 24.1636L176.745 16.1321Z" fill="white"/>
<path d="M80.6098 8.67844L70.0317 38.0619C69.6989 38.9825 69.5321 39.6192 69.5321 39.9718C69.5321 40.5007 69.6888 40.9316 70.0023 41.2646C70.3351 41.5781 70.6391 41.7544 70.9131 41.7936C71.1876 41.8327 72.1078 41.8719 73.675 41.9111V44.3793H61.4223V41.9111C63.0286 41.9111 64.1156 41.6466 64.6841 41.1178C65.252 40.5693 65.9083 39.3057 66.6524 37.3273L79.4344 3.3894H84.2825L97.0056 37.6505C97.5936 39.2568 98.1909 40.3734 98.7984 41.0002C99.4252 41.6075 100.307 41.9111 101.442 41.9111H102.118V44.3793H87.5151V41.9111C87.9263 41.8719 88.5431 41.8524 89.3662 41.8524C90.855 41.8327 91.599 41.2646 91.599 40.1481C91.599 39.6584 91.3251 38.6496 90.7766 37.1216L80.6098 8.67844Z" fill="#0A8FD4"/>
<path d="M14.7832 58.8089C14.7832 59.857 14.6068 60.7727 14.2542 61.5563C13.9016 62.335 13.4021 62.93 12.7557 63.3414C12.1093 63.7526 11.3551 63.9582 10.4931 63.9582C9.68025 63.9582 8.95053 63.7626 8.30413 63.3708C7.66255 62.979 7.15813 62.4182 6.79086 61.6886C6.42848 60.9588 6.22767 60.1067 6.18849 59.1322H4.6532V63.8115H3.2428V53.1159H4.6532V58.0229H6.18114C6.19584 57.0141 6.37946 56.1302 6.73206 55.3711C7.08466 54.6071 7.58664 54.017 8.238 53.6007C8.88929 53.1796 9.63618 52.969 10.4785 52.969C11.3355 52.969 12.0897 53.1772 12.741 53.5934C13.3973 54.0048 13.9016 54.6047 14.2542 55.3931C14.6068 56.1767 14.7832 57.09 14.7832 58.1331V58.8089ZM13.3801 58.1185C13.3801 56.8501 13.1255 55.878 12.6161 55.2021C12.1068 54.5214 11.3942 54.1811 10.4785 54.1811C9.58716 54.1811 8.8844 54.5214 8.3702 55.2021C7.86089 55.878 7.59893 56.8183 7.5842 58.0229V58.8089C7.5842 60.0382 7.84133 61.0054 8.35553 61.7106C8.87462 62.4109 9.58716 62.761 10.4931 62.761C11.4041 62.761 12.1093 62.4305 12.6087 61.7694C13.1083 61.1033 13.3654 60.1508 13.3801 58.9118V58.1185ZM20.7159 59.6243V63.8115H19.3055V53.1159H23.2503C24.4207 53.1159 25.3365 53.4147 25.9976 54.0121C26.6637 54.6096 26.9966 55.4005 26.9966 56.3848C26.9966 57.4231 26.671 58.2237 26.0197 58.7869C25.3732 59.3452 24.4452 59.6243 23.2356 59.6243H20.7159ZM20.7159 58.4711H23.2503C24.0044 58.4711 24.5823 58.2947 24.9839 57.9421C25.3855 57.5847 25.5862 57.0704 25.5862 56.3995C25.5862 55.7629 25.3855 55.2536 24.9839 54.8716C24.5823 54.4896 24.0314 54.2913 23.3311 54.2766H20.7159V58.4711ZM38.2479 53.1159H39.6583V63.8115H38.2479V55.5695L32.9809 63.8115H31.5632V53.1159H32.9809V61.358L38.2479 53.1159ZM54.722 66.4342H53.3189V63.8115H45.6425V66.4411H44.2321L44.2248 62.6582H45.0989C45.5593 62.1391 45.9241 61.4437 46.1934 60.572C46.4677 59.6954 46.6391 58.7355 46.7076 57.6924L46.9427 53.1159H53.341V62.6582H54.7367L54.722 66.4342ZM46.7076 62.6582H51.9232V54.2766H48.3017L48.1475 57.4206C48.0838 58.6498 47.9197 59.6978 47.6553 60.5646C47.3957 61.4314 47.0799 62.1293 46.7076 62.6582ZM65.8632 53.1159H67.2736V63.8115H65.8632V55.5695L60.5961 63.8115H59.1783V53.1159H60.5961V61.358L65.8632 53.1159ZM80.0964 53.1159V63.8115H78.6791V59.382C78.1645 59.5289 77.6968 59.6317 77.2756 59.6905C76.855 59.7443 76.3748 59.7713 75.8363 59.7713C74.6165 59.7713 73.7107 59.5068 73.1183 58.9779C72.5253 58.449 72.2219 57.6385 72.2069 56.5465V53.1159H73.6248V56.5097C73.6298 57.2541 73.7991 57.7903 74.132 58.1185C74.4698 58.4466 75.0377 58.6106 75.8363 58.6106C76.7666 58.6106 77.7144 58.4784 78.6791 58.2139V53.1159H80.0964ZM91.3991 58.8677H86.7642V62.6582H92.1488V63.8115H85.3538V53.1159H92.0748V54.2766H86.7642V57.7144H91.3991V58.8677ZM104.479 60.4177C104.347 61.549 103.928 62.4232 103.223 63.0402C102.523 63.6523 101.59 63.9582 100.425 63.9582C99.1613 63.9582 98.1477 63.5056 97.3836 62.5994C96.6245 61.6934 96.2452 60.4814 96.2452 58.9632V57.9348C96.2452 56.9407 96.4214 56.0665 96.7737 55.3123C97.1316 54.5582 97.6356 53.9803 98.2869 53.5787C98.9382 53.1722 99.6929 52.969 100.55 52.969C101.686 52.969 102.596 53.2873 103.282 53.924C103.968 54.5557 104.367 55.4323 104.479 56.5538H103.062C102.939 55.7017 102.672 55.0846 102.261 54.7027C101.855 54.3207 101.284 54.1297 100.55 54.1297C99.6484 54.1297 98.9407 54.4626 98.4267 55.1287C97.9177 55.7947 97.6625 56.7424 97.6625 57.9715V59.0073C97.6625 60.168 97.9051 61.0911 98.3897 61.7767C98.8748 62.4623 99.5531 62.8051 100.425 62.8051C101.209 62.8051 101.808 62.6288 102.225 62.2762C102.645 61.9187 102.925 61.2992 103.062 60.4177H104.479ZM111.896 59.0073H110.596V63.8115H109.186V53.1159H110.596V57.8319H111.698L115.437 53.1159H117.193L113.109 58.3021L117.494 63.8115H115.768L111.896 59.0073ZM129.487 58.8089C129.487 59.857 129.311 60.7727 128.958 61.5563C128.606 62.335 128.106 62.93 127.46 63.3414C126.813 63.7526 126.059 63.9582 125.197 63.9582C124.355 63.9582 123.608 63.7526 122.956 63.3414C122.305 62.9251 121.799 62.335 121.436 61.571C121.078 60.8021 120.895 59.9133 120.885 58.9045V58.1331C120.885 57.1047 121.064 56.1963 121.421 55.4079C121.779 54.6194 122.283 54.017 122.934 53.6007C123.591 53.1796 124.34 52.969 125.182 52.969C126.039 52.969 126.793 53.1772 127.445 53.5934C128.101 54.0048 128.606 54.6047 128.958 55.3931C129.311 56.1767 129.487 57.09 129.487 58.1331V58.8089ZM128.084 58.1185C128.084 56.8501 127.83 55.878 127.32 55.2021C126.811 54.5214 126.098 54.1811 125.182 54.1811C124.291 54.1811 123.588 54.5214 123.074 55.2021C122.565 55.878 122.303 56.8183 122.288 58.0229V58.8089C122.288 60.0382 122.545 61.0054 123.059 61.7106C123.578 62.4109 124.291 62.761 125.197 62.761C126.108 62.761 126.813 62.4305 127.312 61.7694C127.812 61.1033 128.069 60.1508 128.084 58.9118V58.1185ZM140.356 58.8677H135.721V62.6582H141.106V63.8115H134.311V53.1159H141.032V54.2766H135.721V57.7144H140.356V58.8677ZM158.532 54.2766H153.375V57.4793H156.035C157.151 57.4941 158.023 57.7805 158.65 58.3388C159.277 58.8971 159.59 59.6562 159.59 60.616C159.59 61.5808 159.274 62.3497 158.642 62.9226C158.01 63.4956 157.148 63.7921 156.056 63.8115H151.957V53.1159H158.532V54.2766ZM153.375 58.64V62.6582H155.954C156.654 62.6582 157.197 62.4721 157.584 62.0999C157.976 61.7277 158.172 61.2282 158.172 60.6014C158.172 59.999 157.983 59.524 157.607 59.1763C157.234 58.8286 156.703 58.6498 156.013 58.64H153.375ZM175.851 58.8089C175.851 59.857 175.675 60.7727 175.322 61.5563C174.97 62.335 174.47 62.93 173.823 63.3414C173.177 63.7526 172.423 63.9582 171.561 63.9582C170.748 63.9582 170.018 63.7626 169.372 63.3708C168.73 62.979 168.226 62.4182 167.859 61.6886C167.496 60.9588 167.295 60.1067 167.256 59.1322H165.721V63.8115H164.311V53.1159H165.721V58.0229H167.249C167.264 57.0141 167.448 56.1302 167.8 55.3711C168.153 54.6071 168.654 54.017 169.305 53.6007C169.957 53.1796 170.704 52.969 171.546 52.969C172.403 52.969 173.157 53.1772 173.809 53.5934C174.465 54.0048 174.97 54.6047 175.322 55.3931C175.675 56.1767 175.851 57.09 175.851 58.1331V58.8089ZM174.448 58.1185C174.448 56.8501 174.193 55.878 173.684 55.2021C173.174 54.5214 172.462 54.1811 171.546 54.1811C170.655 54.1811 169.952 54.5214 169.438 55.2021C168.929 55.878 168.667 56.8183 168.652 58.0229V58.8089C168.652 60.0382 168.909 61.0054 169.423 61.7106C169.942 62.4109 170.655 62.761 171.561 62.761C172.472 62.761 173.177 62.4305 173.676 61.7694C174.176 61.1033 174.433 60.1508 174.448 58.9118V58.1185ZM181.783 59.6243V63.8115H180.373V53.1159H184.318C185.488 53.1159 186.404 53.4147 187.065 54.0121C187.732 54.6096 188.064 55.4005 188.064 56.3848C188.064 57.4231 187.739 58.2237 187.087 58.7869C186.441 59.3452 185.513 59.6243 184.303 59.6243H181.783ZM181.783 58.4711H184.318C185.072 58.4711 185.65 58.2947 186.052 57.9421C186.454 57.5847 186.654 57.0704 186.654 56.3995C186.654 55.7629 186.454 55.2536 186.052 54.8716C185.65 54.4896 185.099 54.2913 184.399 54.2766H181.783V58.4711ZM200.8 58.8089C200.8 59.857 200.623 60.7727 200.27 61.5563C199.918 62.335 199.419 62.93 198.772 63.3414C198.125 63.7526 197.371 63.9582 196.509 63.9582C195.667 63.9582 194.92 63.7526 194.269 63.3414C193.618 62.9251 193.111 62.335 192.748 61.571C192.391 60.8021 192.207 59.9133 192.197 58.9045V58.1331C192.197 57.1047 192.376 56.1963 192.734 55.4079C193.091 54.6194 193.596 54.017 194.247 53.6007C194.903 53.1796 195.652 52.969 196.495 52.969C197.352 52.969 198.106 53.1772 198.757 53.5934C199.414 54.0048 199.918 54.6047 200.27 55.3931C200.623 56.1767 200.8 57.09 200.8 58.1331V58.8089ZM199.397 58.1185C199.397 56.8501 199.141 55.878 198.632 55.2021C198.123 54.5214 197.411 54.1811 196.495 54.1811C195.604 54.1811 194.901 54.5214 194.386 55.2021C193.877 55.878 193.615 56.8183 193.601 58.0229V58.8089C193.601 60.0382 193.858 61.0054 194.372 61.7106C194.891 62.4109 195.604 62.761 196.509 62.761C197.42 62.761 198.125 62.4305 198.625 61.7694C199.125 61.1033 199.382 60.1508 199.397 58.9118V58.1185Z" fill="white"/>
</g>
</g>
<defs>
<clipPath id="clip0_1_48">
<rect width="199.964" height="69.58" fill="white" transform="translate(0.0179443 0.5)"/>
</clipPath>
</defs>
</svg>
