<svg width="86" height="30" viewBox="0 0 86 30" fill="none" xmlns="http://www.w3.org/2000/svg">
<g clip-path="url(#clip0_1_367)">
<mask id="mask0_1_367" style="mask-type:luminance" maskUnits="userSpaceOnUse" x="0" y="0" width="86" height="30">
<path d="M85.8333 0H0V30H85.8333V0Z" fill="white"/>
</mask>
<g mask="url(#mask0_1_367)">
<path d="M5.71773 8.07229H7.10511L10.746 17.746C10.9254 18.2327 11.1047 18.5563 11.2841 18.7167C11.4691 18.8715 11.7158 18.949 12.0241 18.949H12.209V19.6459H8.03006V18.949C8.1646 18.9379 8.29631 18.9324 8.42524 18.9324C8.69431 18.9324 8.8709 18.9047 8.95496 18.8494C9.11753 18.7443 9.19882 18.6116 9.19882 18.4512C9.19882 18.335 9.12033 18.0502 8.96338 17.5966L8.18981 15.3566H3.93514L3.02703 17.8621C2.93172 18.1221 2.8841 18.3018 2.8841 18.4014C2.8841 18.512 2.91211 18.6088 2.96815 18.6918C3.02983 18.7748 3.11111 18.8383 3.21201 18.8826C3.31291 18.9213 3.47549 18.9407 3.6997 18.9407C3.85105 18.9407 3.97437 18.9434 4.06967 18.949V19.6459H0.563354V18.949C0.88848 18.949 1.12112 18.9185 1.26125 18.8577C1.407 18.7913 1.53313 18.689 1.63963 18.5507C1.74614 18.4069 1.88628 18.1082 2.06006 17.6547L5.71773 8.07229ZM4.24624 14.5435H7.87029L6.05406 9.56566L4.24624 14.5435ZM14.8604 7.68237H15.449L15.5331 8.07229H22.7307L22.798 7.68237H23.4118L24.6478 11.0839L23.8911 11.3494C23.5267 10.4423 23.095 9.80627 22.5962 9.44122C22.0973 9.07066 21.4582 8.88537 20.679 8.88537C20.3539 8.88537 20.1605 8.89918 20.0988 8.92684C20.0372 8.94896 19.9923 8.99045 19.9643 9.0513C19.9419 9.11213 19.9307 9.30572 19.9307 9.63203V17.663C19.9307 18.0447 19.9503 18.3018 19.9896 18.4346C20.0344 18.5673 20.096 18.6696 20.1745 18.7416C20.253 18.8135 20.3595 18.866 20.4941 18.8992C20.6342 18.9269 20.9425 18.9434 21.419 18.949V19.6459H16.8952V18.949C17.3941 18.9434 17.6996 18.9269 17.8118 18.8992C18.008 18.8439 18.1481 18.7388 18.2322 18.5839C18.3163 18.4291 18.3583 18.1442 18.3583 17.7294V9.52419C18.3583 9.26977 18.3443 9.11489 18.3163 9.05959C18.2938 9.00428 18.2462 8.96279 18.1733 8.93513C18.1061 8.90194 17.9631 8.88537 17.7445 8.88537C17.1335 8.88537 16.643 8.96279 16.273 9.11767C15.9086 9.27253 15.5639 9.53526 15.2388 9.90582C14.9137 10.2764 14.6362 10.7576 14.4063 11.3494L13.6496 11.0839L14.8604 7.68237ZM51.1244 8.07229H52.5117L56.1525 17.746C56.332 18.2327 56.5114 18.5563 56.6906 18.7167C56.8757 18.8715 57.1222 18.949 57.4306 18.949H57.6157V19.6459H53.4368V18.949C53.5713 18.9379 53.7029 18.9324 53.8318 18.9324C54.1008 18.9324 54.2776 18.9047 54.3616 18.8494C54.5241 18.7443 54.6053 18.6116 54.6053 18.4512C54.6053 18.335 54.527 18.0502 54.3699 17.5966L53.5963 15.3566H49.3418L48.4337 17.8621C48.3384 18.1221 48.2908 18.3018 48.2908 18.4014C48.2908 18.512 48.3188 18.6088 48.3747 18.6918C48.4364 18.7748 48.5176 18.8383 48.6185 18.8826C48.7194 18.9213 48.8819 18.9407 49.1063 18.9407C49.2576 18.9407 49.3811 18.9434 49.4763 18.949V19.6459H45.9701V18.949C46.2951 18.949 46.5276 18.9185 46.6678 18.8577C46.8136 18.7913 46.9398 18.689 47.0463 18.5507C47.1526 18.4069 47.2928 18.1082 47.4666 17.6547L51.1244 8.07229ZM49.6528 14.5435H53.2769L51.4607 9.56566L49.6528 14.5435ZM60.0314 8.07229H64.5553V8.77751H64.2442C63.8853 8.77751 63.6275 8.81069 63.4706 8.87706C63.3192 8.94343 63.2126 9.05959 63.151 9.22551C63.1007 9.34719 63.0754 9.60439 63.0754 9.99707V13.2244H69.1548V10.0801C69.1548 9.65417 69.1408 9.39697 69.1125 9.30848C69.0678 9.13148 68.9696 8.99874 68.8184 8.91025C68.6726 8.82176 68.4484 8.77751 68.1457 8.77751H67.6832V8.07229H72.1732V8.77751H71.7696C71.4558 8.77751 71.2314 8.81345 71.0969 8.88537C70.968 8.95174 70.8757 9.04575 70.8195 9.16743C70.7692 9.2836 70.7439 9.53802 70.7439 9.9307V17.8124C70.7439 18.2493 70.7719 18.5286 70.8278 18.6503C70.8841 18.7664 70.996 18.8494 71.1642 18.8992C71.2651 18.9324 71.6014 18.949 72.1732 18.949V19.6459H67.6832V18.949H68.0112C68.4258 18.949 68.7006 18.9213 68.8351 18.866C68.9753 18.8107 69.0649 18.7222 69.1042 18.6005C69.1378 18.5065 69.1548 18.2106 69.1548 17.7128V14.1204H63.0754V17.8124C63.0754 18.2493 63.1034 18.5286 63.1593 18.6503C63.2212 18.772 63.3361 18.8549 63.5043 18.8992C63.6275 18.9324 63.9778 18.949 64.5553 18.949V19.6459H60.0314V18.949H60.3174C60.7547 18.949 61.0264 18.9269 61.133 18.8826C61.2452 18.8328 61.3321 18.7416 61.3937 18.6088C61.461 18.4761 61.4946 18.241 61.4946 17.9036V9.9307C61.4946 9.5712 61.4637 9.32231 61.402 9.18405C61.3461 9.04575 61.2535 8.94343 61.1246 8.87706C61.0014 8.81069 60.7939 8.77751 60.5023 8.77751H60.0314V8.07229ZM75.5898 7.68237H76.1783L76.2625 8.07229H83.4601L83.5274 7.68237H84.1411L85.3773 11.0839L84.6204 11.3494C84.256 10.4423 83.8244 9.80627 83.3256 9.44122C82.8267 9.07066 82.1877 8.88537 81.4085 8.88537C81.0834 8.88537 80.89 8.89918 80.8284 8.92684C80.7667 8.94896 80.7218 8.99045 80.6938 9.0513C80.6712 9.11213 80.6602 9.30572 80.6602 9.63203V17.663C80.6602 18.0447 80.6798 18.3018 80.7188 18.4346C80.7638 18.5673 80.8254 18.6696 80.904 18.7416C80.9825 18.8135 81.0888 18.866 81.2234 18.8992C81.3635 18.9269 81.6719 18.9434 82.1484 18.949V19.6459H77.6245V18.949C78.1237 18.9434 78.4291 18.9269 78.5413 18.8992C78.7374 18.8439 78.8776 18.7388 78.9615 18.5839C79.0458 18.4291 79.0877 18.1442 79.0877 17.7294V9.52419C79.0877 9.26977 79.0737 9.11489 79.0458 9.05959C79.0232 9.00428 78.9755 8.96279 78.9026 8.93513C78.8354 8.90194 78.6925 8.88537 78.474 8.88537C77.8629 8.88537 77.3724 8.96279 77.0024 9.11767C76.6381 9.27253 76.2934 9.53526 75.9681 9.90582C75.6431 10.2764 75.3657 10.7576 75.1356 11.3494L74.379 11.0839L75.5898 7.68237Z" fill="#161824"/>
<path d="M34.3244 4.52569L29.7839 16.9704C29.641 17.3603 29.5694 17.6299 29.5694 17.7793C29.5694 18.0033 29.6367 18.1858 29.7712 18.3268C29.9141 18.4596 30.0446 18.5343 30.1622 18.5509C30.28 18.5674 30.675 18.584 31.3477 18.6006V19.646H26.0883V18.6006C26.7778 18.6006 27.2444 18.4886 27.4884 18.2646C27.7322 18.0323 28.0139 17.4972 28.3333 16.6593L33.8199 2.28564H35.9009L41.3622 16.7961C41.6146 17.4765 41.871 17.9494 42.1318 18.2149C42.4008 18.472 42.7791 18.6006 43.2667 18.6006H43.5567V19.646H37.2885V18.6006C37.465 18.584 37.7298 18.5758 38.0831 18.5758C38.7221 18.5674 39.0415 18.3268 39.0415 17.854C39.0415 17.6466 38.9239 17.2193 38.6885 16.5722L34.3244 4.52569Z" fill="#0A8FD4"/>
<path d="M6.0688 24.9609C6.0688 25.4048 5.99311 25.7926 5.84176 26.1245C5.69041 26.4543 5.47601 26.7064 5.19852 26.8805C4.92105 27.0547 4.59731 27.1418 4.22734 27.1418C3.87841 27.1418 3.56518 27.0589 3.28772 26.893C3.01232 26.7271 2.7958 26.4895 2.63815 26.1805C2.4826 25.8715 2.39641 25.5106 2.37959 25.0978H1.72058V27.0796H1.11517V22.5498H1.72058V24.628H2.37644C2.38275 24.2008 2.46158 23.8264 2.61293 23.5049C2.76427 23.1813 2.97974 22.9314 3.25933 22.7551C3.53889 22.5768 3.85949 22.4875 4.22104 22.4875C4.58891 22.4875 4.91263 22.5757 5.19222 22.752C5.47391 22.9262 5.69041 23.1803 5.84176 23.5142C5.99311 23.8461 6.0688 24.2329 6.0688 24.6747V24.9609ZM5.46654 24.6685C5.46654 24.1313 5.35724 23.7196 5.13862 23.4333C4.92 23.1451 4.61413 23.0009 4.22104 23.0009C3.83845 23.0009 3.5368 23.1451 3.31608 23.4333C3.09746 23.7196 2.98501 24.1178 2.97869 24.628V24.9609C2.97869 25.4815 3.08906 25.8912 3.30978 26.1898C3.5326 26.4864 3.83845 26.6347 4.22734 26.6347C4.61835 26.6347 4.92105 26.4948 5.13545 26.2147C5.34987 25.9327 5.46024 25.5293 5.46654 25.0045V24.6685ZM8.61541 25.3063V27.0796H8.01V22.5498H9.70326C10.2057 22.5498 10.5988 22.6763 10.8825 22.9293C11.1684 23.1824 11.3114 23.5173 11.3114 23.9342C11.3114 24.374 11.1716 24.7131 10.892 24.9516C10.6145 25.1881 10.2162 25.3063 9.69694 25.3063H8.61541ZM8.61541 24.8178H9.70326C10.027 24.8178 10.275 24.7432 10.4474 24.5938C10.6198 24.4424 10.706 24.2246 10.706 23.9405C10.706 23.6708 10.6198 23.4551 10.4474 23.2934C10.275 23.1316 10.0385 23.0476 9.73794 23.0414H8.61541V24.8178ZM16.1409 22.5498H16.7463V27.0796H16.1409V23.5889L13.8801 27.0796H13.2715V22.5498H13.8801V26.0405L16.1409 22.5498ZM23.2123 28.1904H22.61V27.0796H19.315V28.1934H18.7096L18.7064 26.5912H19.0816C19.2792 26.3713 19.4358 26.0768 19.5515 25.7076C19.6692 25.3364 19.7428 24.9298 19.7722 24.488L19.8731 22.5498H22.6195V26.5912H23.2186L23.2123 28.1904ZM19.7722 26.5912H22.0109V23.0414H20.4564L20.3902 24.3729C20.3629 24.8935 20.2925 25.3374 20.179 25.7045C20.0675 26.0716 19.932 26.3672 19.7722 26.5912ZM27.9946 22.5498H28.6V27.0796H27.9946V23.5889L25.7337 27.0796H25.1251V22.5498H25.7337V26.0405L27.9946 22.5498ZM34.1041 22.5498V27.0796H33.4957V25.2036C33.2748 25.2658 33.0741 25.3094 32.8933 25.3343C32.7127 25.3571 32.5066 25.3685 32.2755 25.3685C31.7519 25.3685 31.3631 25.2565 31.1088 25.0325C30.8543 24.8085 30.724 24.4652 30.7176 24.0027V22.5498H31.3262V23.9872C31.3284 24.3024 31.401 24.5295 31.5439 24.6685C31.6889 24.8075 31.9327 24.8769 32.2755 24.8769C32.6748 24.8769 33.0816 24.8209 33.4957 24.7089V22.5498H34.1041ZM38.9557 24.9858H36.9662V26.5912H39.2775V27.0796H36.3608V22.5498H39.2458V23.0414H36.9662V24.4974H38.9557V24.9858ZM44.5704 25.6423C44.5136 26.1214 44.3339 26.4916 44.0312 26.7531C43.7306 27.0122 43.3302 27.1418 42.83 27.1418C42.2876 27.1418 41.8525 26.9501 41.5245 26.5662C41.1987 26.1826 41.0359 25.6692 41.0359 25.0263V24.5907C41.0359 24.1697 41.1115 23.7994 41.2627 23.48C41.4163 23.1606 41.6327 22.9159 41.9122 22.7458C42.1918 22.5736 42.5158 22.4875 42.8836 22.4875C43.3711 22.4875 43.7621 22.6224 44.0565 22.892C44.3508 23.1596 44.5222 23.5308 44.5704 24.0058H43.962C43.9093 23.6449 43.7946 23.3836 43.6181 23.2218C43.4438 23.06 43.1989 22.9791 42.8836 22.9791C42.4967 22.9791 42.1929 23.1201 41.9722 23.4022C41.7538 23.6843 41.6442 24.0857 41.6442 24.6063V25.0449C41.6442 25.5365 41.7484 25.9275 41.9564 26.2178C42.1646 26.5082 42.4558 26.6535 42.83 26.6535C43.1664 26.6535 43.4239 26.5787 43.6025 26.4294C43.7831 26.278 43.9031 26.0156 43.962 25.6423H44.5704ZM47.754 25.0449H47.196V27.0796H46.5906V22.5498H47.196V24.5471H47.669L49.2737 22.5498H50.0274L48.2744 24.7463L50.1568 27.0796H49.4158L47.754 25.0449ZM55.3047 24.9609C55.3047 25.4048 55.229 25.7926 55.0776 26.1245C54.9263 26.4543 54.7119 26.7064 54.4345 26.8805C54.1571 27.0547 53.8331 27.1418 53.4631 27.1418C53.1018 27.1418 52.781 27.0547 52.5015 26.8805C52.2219 26.7042 52.0045 26.4543 51.8487 26.1307C51.6954 25.8051 51.6165 25.4286 51.6125 25.0014V24.6747C51.6125 24.2391 51.6892 23.8544 51.8425 23.5205C51.9959 23.1865 52.2125 22.9314 52.4921 22.7551C52.7738 22.5768 53.0953 22.4875 53.457 22.4875C53.8248 22.4875 54.1485 22.5757 54.428 22.752C54.7097 22.9262 54.9263 23.1803 55.0776 23.5142C55.229 23.8461 55.3047 24.2329 55.3047 24.6747V24.9609ZM54.7025 24.6685C54.7025 24.1313 54.5932 23.7196 54.3745 23.4333C54.156 23.1451 53.8501 23.0009 53.457 23.0009C53.0743 23.0009 52.7727 23.1451 52.5521 23.4333C52.3333 23.7196 52.2208 24.1178 52.2147 24.628V24.9609C52.2147 25.4815 52.325 25.8912 52.5456 26.1898C52.7684 26.4864 53.0743 26.6347 53.4631 26.6347C53.8544 26.6347 54.1571 26.4948 54.3713 26.2147C54.5857 25.9327 54.696 25.5293 54.7025 25.0045V24.6685ZM59.9703 24.9858H57.9806V26.5912H60.2919V27.0796H57.3752V22.5498H60.2604V23.0414H57.9806V24.4974H59.9703V24.9858ZM67.772 23.0414H65.5586V24.3978H66.7C67.1793 24.404 67.5535 24.5254 67.8226 24.7618C68.0917 24.9983 68.2262 25.3198 68.2262 25.7263C68.2262 26.1349 68.0906 26.4605 67.8194 26.7032C67.5481 26.9458 67.1782 27.0714 66.7095 27.0796H64.95V22.5498H67.772V23.0414ZM65.5586 24.8894V26.5912H66.6653C66.9659 26.5912 67.1992 26.5124 67.3652 26.3547C67.5334 26.1971 67.6176 25.9855 67.6176 25.7201C67.6176 25.465 67.5366 25.2638 67.3749 25.1165C67.215 24.9692 66.9869 24.8935 66.6906 24.8894H65.5586ZM75.2062 24.9609C75.2062 25.4048 75.1305 25.7926 74.9791 26.1245C74.8278 26.4543 74.6134 26.7064 74.3357 26.8805C74.0583 27.0547 73.7346 27.1418 73.3646 27.1418C73.0157 27.1418 72.7025 27.0589 72.425 26.893C72.1495 26.7271 71.9332 26.4895 71.7755 26.1805C71.62 25.8715 71.5336 25.5106 71.5169 25.0978H70.858V27.0796H70.2526V22.5498H70.858V24.628H71.5137C71.5202 24.2008 71.599 23.8264 71.7502 23.5049C71.9017 23.1813 72.117 22.9314 72.3965 22.7551C72.6761 22.5768 72.9968 22.4875 73.3584 22.4875C73.7263 22.4875 74.05 22.5757 74.3295 22.752C74.6112 22.9262 74.8278 23.1803 74.9791 23.5142C75.1305 23.8461 75.2062 24.2329 75.2062 24.6747V24.9609ZM74.6037 24.6685C74.6037 24.1313 74.4945 23.7196 74.276 23.4333C74.0572 23.1451 73.7516 23.0009 73.3584 23.0009C72.9758 23.0009 72.6742 23.1451 72.4533 23.4333C72.2348 23.7196 72.1223 24.1178 72.1159 24.628V24.9609C72.1159 25.4815 72.2265 25.8912 72.4471 26.1898C72.6699 26.4864 72.9758 26.6347 73.3646 26.6347C73.7556 26.6347 74.0583 26.4948 74.2728 26.2147C74.4872 25.9327 74.5975 25.5293 74.6037 25.0045V24.6685ZM77.7526 25.3063V27.0796H77.1472V22.5498H78.8405C79.3428 22.5498 79.736 22.6763 80.0198 22.9293C80.3058 23.1824 80.4487 23.5173 80.4487 23.9342C80.4487 24.374 80.3088 24.7131 80.0292 24.9516C79.7518 25.1881 79.3536 25.3063 78.8343 25.3063H77.7526ZM77.7526 24.8178H78.8405C79.1642 24.8178 79.4123 24.7432 79.5847 24.5938C79.7572 24.4424 79.8433 24.2246 79.8433 23.9405C79.8433 23.6708 79.7572 23.4551 79.5847 23.2934C79.4123 23.1316 79.1758 23.0476 78.8752 23.0414H77.7526V24.8178ZM85.9151 24.9609C85.9151 25.4048 85.8395 25.7926 85.688 26.1245C85.5368 26.4543 85.3224 26.7064 85.045 26.8805C84.7673 27.0547 84.4436 27.1418 84.0736 27.1418C83.712 27.1418 83.3915 27.0547 83.112 26.8805C82.8324 26.7042 82.6147 26.4543 82.4592 26.1307C82.3058 25.8051 82.227 25.4286 82.2227 25.0014V24.6747C82.2227 24.2391 82.2994 23.8544 82.453 23.5205C82.6064 23.1865 82.823 22.9314 83.1026 22.7551C83.3843 22.5768 83.7058 22.4875 84.0674 22.4875C84.4353 22.4875 84.7589 22.5757 85.0385 22.752C85.3202 22.9262 85.5368 23.1803 85.688 23.5142C85.8395 23.8461 85.9151 24.2329 85.9151 24.6747V24.9609ZM85.313 24.6685C85.313 24.1313 85.2034 23.7196 84.985 23.4333C84.7662 23.1451 84.4605 23.0009 84.0674 23.0009C83.6848 23.0009 83.3832 23.1451 83.1623 23.4333C82.9438 23.7196 82.8313 24.1178 82.8251 24.628V24.9609C82.8251 25.4815 82.9355 25.8912 83.1561 26.1898C83.3789 26.4864 83.6848 26.6347 84.0736 26.6347C84.4646 26.6347 84.7673 26.4948 84.9817 26.2147C85.1962 25.9327 85.3065 25.5293 85.313 25.0045V24.6685Z" fill="#161824"/>
</g>
</g>
<defs>
<clipPath id="clip0_1_367">
<rect width="85.8333" height="30" fill="white"/>
</clipPath>
</defs>
</svg>
