<svg width="33" height="33" viewBox="0 0 33 33" fill="none" xmlns="http://www.w3.org/2000/svg">
<path d="M10.6826 0.795307C8.79744 1.97353 7.85486 3.74086 7.85486 6.29367C7.85486 10.2211 10.2113 12.5775 14.1387 12.5775C18.0661 12.5775 20.4225 10.2211 20.4225 6.29367C20.4225 3.74086 19.48 1.97353 17.5948 0.795307C15.8275 -0.265092 12.4499 -0.265092 10.6826 0.795307Z" fill="#0024FF"/>
<path d="M19.6371 13.363C19.1265 13.8735 18.8516 14.659 18.8516 15.7194V17.2904H17.2807C14.7278 17.2904 14.0995 18.2329 14.2173 21.9247L14.3351 24.9488L18.184 25.0666C21.7972 25.1844 21.9935 25.1452 21.9935 24.3597C21.9935 23.692 22.2292 23.5742 23.5645 23.5742C24.8998 23.5742 25.1355 23.692 25.1355 24.3597C25.1355 25.1452 25.3318 25.1844 28.9843 25.0666L32.7939 24.9488L32.9117 21.9247C33.0295 18.2329 32.4012 17.2904 29.8483 17.2904H28.2774V15.7194C28.2774 13.2059 27.3348 12.5775 23.5645 12.5775C20.9331 12.5775 20.3048 12.6953 19.6371 13.363ZM25.1355 16.5049C25.1355 17.1725 24.8605 17.2904 23.5645 17.2904C22.2685 17.2904 21.9935 17.1725 21.9935 16.5049C21.9935 15.8372 22.2685 15.7194 23.5645 15.7194C24.8605 15.7194 25.1355 15.8372 25.1355 16.5049Z" fill="#0024FF"/>
<path d="M8.169 17.9188C5.1449 18.6257 2.27789 20.1181 1.02112 21.6105C0.117822 22.6709 0 23.2208 0 25.5772V28.2871H5.45909H10.9182L11.1145 23.6528C11.2324 21.1392 11.4287 18.665 11.5858 18.1544C11.9393 17.1333 11.5073 17.094 8.169 17.9188Z" fill="#0024FF"/>
<path d="M14.1387 29.7403C14.1387 30.9185 14.3743 31.6647 14.9242 32.2145C15.6704 32.9607 16.2202 33 23.5644 33C30.9087 33 31.4585 32.9607 32.2047 32.2145C32.7546 31.6647 32.9902 30.9185 32.9902 29.7403V28.0907H23.5644H14.1387V29.7403Z" fill="#0024FF"/>
</svg>
