<?xml version="1.0" encoding="utf-8"?><svg viewBox="0 0 31 33" xmlns="http://www.w3.org/2000/svg" xmlns:xlink="http://www.w3.org/1999/xlink"><style>:root>svg{display:none}:root>svg:target{display:block}</style><svg viewBox="0 0 28 33" id="check" xmlns="http://www.w3.org/2000/svg"><path d="M1.625.825C.841 1.61.8 2.187.8 16.5c0 14.314.041 14.892.825 15.675.784.784 1.361.826 12.375.826s11.591-.042 12.375-.825c.784-.784.825-1.362.825-11.674V9.694l-4.867-4.867L17.505 0H9.958c-6.972 0-7.55.042-8.333.825zm22.688 10.602c0 .082-1.94.123-4.332.123H15.65V2.682l4.331 4.331c2.393 2.392 4.331 4.373 4.331 4.414zM20.6 18.15v1.65H7.4v-3.3h13.2v1.65zm0 6.6v1.65H7.4v-3.3h13.2v1.65z"/></svg><svg viewBox="0 0 31 33" id="consulting" xmlns="http://www.w3.org/2000/svg"><path d="M1.252.751C.538 1.466.5 1.991.5 15.031c0 13.041.038 13.567.752 14.281.676.677 1.24.752 6.2.752 3.007 0 5.45-.075 5.45-.15 0-.076-.339-.865-.752-1.767-1.052-2.367-1.015-5.975.15-8.418 1.766-3.833 5.412-5.975 9.771-5.75l2.48.113v-5.26l-4.434-4.435L15.72 0H8.843C2.492 0 1.966.037 1.252.75zM21.92 10.41c0 .075-1.767.112-3.946.112h-3.946v-8.08l3.946 3.946c2.18 2.18 3.946 3.984 3.946 4.022z"/><path d="M17.975 17.174c-2.744 1.428-3.946 3.533-3.946 6.877 0 4.735 2.78 7.516 7.478 7.516 1.24 0 2.706-.188 3.232-.45.864-.377 1.09-.301 2.18.75 1.465 1.429 1.766 1.466 2.818.34 1.09-1.128 1.053-1.316-.375-2.782-1.053-1.09-1.128-1.315-.752-2.18 1.052-2.33.376-6.576-1.39-8.605-1.767-1.992-6.727-2.819-9.245-1.466zm5.787 3.27c3.457 1.803 2.03 7.704-1.916 7.741-2.857 0-4.435-1.54-4.435-4.472 0-3.044 3.382-4.773 6.351-3.27z"/></svg><svg viewBox="0 0 30 33" id="docs" xmlns="http://www.w3.org/2000/svg"><path d="M5.905.829c-.742.742-.824 1.361-.824 5.774 0 6.105.288 6.6 4.042 6.6h2.35l1.61 2.474c.865 1.361 1.732 2.475 1.896 2.475.166 0 1.032-1.114 1.898-2.475l1.608-2.474h2.351c3.754 0 4.042-.495 4.042-6.6 0-6.97.578-6.599-9.899-6.599-7.712 0-8.29.041-9.074.825zm-1.65 18.148c-.536.536-.825 1.361-.825 2.475 0 2.186 1.114 3.3 3.3 3.3s3.3-1.114 3.3-3.3c0-1.114-.289-1.939-.825-2.475s-1.361-.825-2.475-.825-1.938.289-2.475.825zm16.499 0c-.537.536-.825 1.361-.825 2.475 0 2.186 1.113 3.3 3.3 3.3 2.185 0 3.3-1.114 3.3-3.3 0-1.114-.29-1.939-.826-2.475s-1.36-.825-2.475-.825c-1.113 0-1.938.289-2.474.825zM2.606 26.855C.626 27.68.13 28.463.13 30.815V33h13.24l-.124-2.31c-.165-3.341-1.196-4.042-6.022-4.166-1.98-.083-4.042.082-4.62.33zm16.498 0c-1.98.825-2.475 1.608-2.475 3.96V33H29.87l-.124-2.31c-.165-3.341-1.196-4.042-6.021-4.166-1.98-.083-4.043.082-4.62.33z"/></svg><svg viewBox="0 0 31 33" id="hummer" xmlns="http://www.w3.org/2000/svg"><path d="M11.568 7.855l-6.074 6.074 1.08 1.006c1.23 1.193 1.454 1.23 2.386.373.67-.596.745-.559 1.9.559l1.193 1.192-5.777 5.777L.5 28.612l1.23 1.193 1.192 1.23L8.7 25.258l5.776-5.776 1.379 1.379c1.304 1.304 1.342 1.416.745 2.087-.857.931-.82 1.267.41 2.422l1.044 1.006 6.112-6.149 6.149-6.149-1.193-1.192-1.192-1.193-.97.895-.968.894-3.764-3.764c-3.652-3.652-3.764-3.839-3.168-4.51.857-.931.82-1.267-.41-2.422L17.606 1.78l-6.038 6.075zm5.516 21.875v1.49H30.5v-2.98H17.084v1.49z"/></svg></svg>