<?xml version="1.0" encoding="utf-8"?><svg viewBox="0 0 33 34" xmlns="http://www.w3.org/2000/svg" xmlns:xlink="http://www.w3.org/1999/xlink"><style>:root>svg{display:none}:root>svg:target{display:block}</style><svg viewBox="0 0 33 34" id="Location" xmlns="http://www.w3.org/2000/svg"><path d="M16.225 3.25c-5.233 0-9.465 4.304-9.465 9.625 0 7.219 9.465 17.875 9.465 17.875s9.465-10.656 9.465-17.875c0-5.321-4.232-9.625-9.465-9.625zm0 13.063c-1.866 0-3.38-1.54-3.38-3.438 0-1.898 1.514-3.438 3.38-3.438 1.866 0 3.38 1.54 3.38 3.438 0 1.898-1.514 3.438-3.38 3.438z"/></svg><svg viewBox="0 0 33 34" id="Mail" xmlns="http://www.w3.org/2000/svg"><g clip-path="url(#ba)"><path d="M27.5 6h-22a2.746 2.746 0 00-2.736 2.75l-.014 16.5A2.758 2.758 0 005.5 28h22a2.758 2.758 0 002.75-2.75V8.75A2.758 2.758 0 0027.5 6zm0 5.5l-11 6.875-11-6.875V8.75l11 6.875 11-6.875v2.75z"/></g><defs><clipPath id="ba"><path transform="translate(0 .5)" d="M0 0h33v33H0z"/></clipPath></defs></svg><svg viewBox="0 0 33 34" id="Phone" xmlns="http://www.w3.org/2000/svg"><path d="M23.5 15.336l-2.975-3.025a1.397 1.397 0 01-.338-1.402c.5-1.54.77-3.19.77-4.909 0-.756.609-1.375 1.352-1.375h4.733c.743 0 1.352.619 1.352 1.375 0 12.911-10.29 23.375-22.986 23.375-.743 0-1.352-.619-1.352-1.375v-4.799c0-.756.609-1.375 1.352-1.375a15.19 15.19 0 004.827-.784 1.329 1.329 0 011.38.33l2.974 3.026a20.66 20.66 0 008.91-9.062z"/></svg><svg viewBox="0 0 33 34" id="time" xmlns="http://www.w3.org/2000/svg"><path d="M16.212 3.25C8.748 3.25 2.704 9.41 2.704 17s6.044 13.75 13.508 13.75c7.477 0 13.534-6.16 13.534-13.75S23.689 3.25 16.212 3.25zM16.225 28c-5.976 0-10.817-4.922-10.817-11s4.84-11 10.817-11c5.976 0 10.817 4.922 10.817 11s-4.84 11-10.817 11z"/><path d="M16.901 10.125h-2.028v8.25l7.098 4.331 1.014-1.691-6.084-3.671v-7.219z"/></svg></svg>